<svg width="52" height="50" viewBox="0 0 52 50" fill="none" xmlns="http://www.w3.org/2000/svg">
<rect x="1.34717" y="1" width="49.6529" height="48" rx="9" fill="#F0F0FF" stroke="#F76308" stroke-width="2"/>
<path d="M35.4713 7L35.4713 8L32.3721 11L29.2729 14H28.2399" stroke="#F76308" stroke-width="2"/>
<line x1="35.438" y1="1" x2="35.438" y2="8" stroke="#F76308" stroke-width="2"/>
<line x1="16.876" y1="14" x2="29.2727" y2="14" stroke="#F76308" stroke-width="2"/>
<line x1="28.2065" y1="5" x2="28.2065" y2="15" stroke="#F76308" stroke-width="2"/>
<line x1="16.8428" y1="1" x2="16.8428" y2="15" stroke="#F76308" stroke-width="2"/>
<line x1="28.2397" y1="6" x2="36.5042" y2="6" stroke="#F76308" stroke-width="2"/>
<path d="M6.85894 22.6105C6.64383 22.4374 6.32908 22.4714 6.15592 22.6865C5.98277 22.9016 6.01678 23.2163 6.23188 23.3895L6.85894 22.6105ZM46.3016 22.9985C46.3008 22.7223 46.0762 22.4991 45.8001 22.5L41.3001 22.5139C41.0239 22.5148 40.8008 22.7393 40.8016 23.0155C40.8025 23.2916 41.027 23.5148 41.3032 23.5139L45.3032 23.5015L45.3155 27.5015C45.3164 27.7777 45.5409 28.0008 45.8171 28C46.0932 27.9991 46.3164 27.7746 46.3155 27.4984L46.3016 22.9985ZM32.8818 29V29.5H32.8981L32.9143 29.4989L32.8818 29ZM8.53307 24.6L8.21954 24.9895L8.2285 24.9967L8.23779 25.0035L8.53307 24.6ZM44.6316 24.1772L44.277 23.8248L44.6316 24.1772ZM34.2151 28.9133L34.1826 28.4143L34.2151 28.9133ZM19.9621 29.5H26.9189V28.5H19.9621V29.5ZM26.9189 29.5H32.8818V28.5H26.9189V29.5ZM32.9143 29.4989L34.2475 29.4122L34.1826 28.4143L32.8494 28.5011L32.9143 29.4989ZM6.23188 23.3895L8.21954 24.9895L8.84659 24.2105L6.85894 22.6105L6.23188 23.3895ZM8.23779 25.0035L8.88092 25.4741L9.47148 24.6671L8.82834 24.1965L8.23779 25.0035ZM44.9863 24.5297L46.1563 23.3525L45.447 22.6475L44.277 23.8248L44.9863 24.5297ZM43.1879 26.0971C43.824 25.6182 44.425 25.0944 44.9863 24.5297L44.277 23.8248C43.7494 24.3556 43.1845 24.848 42.5865 25.2981L43.1879 26.0971ZM34.2475 29.4122C37.4869 29.2015 40.5942 28.0493 43.1879 26.0971L42.5865 25.2981C40.1485 27.1332 37.2276 28.2163 34.1826 28.4143L34.2475 29.4122ZM19.9956 28.5011C16.1951 28.2462 12.5453 26.9166 9.47148 24.6671L8.88092 25.4741C12.1077 27.8355 15.9391 29.2313 19.9286 29.4989L19.9956 28.5011Z" fill="#F76308"/>
</svg>
