<svg width="168" height="62" viewBox="0 0 168 62" fill="none" xmlns="http://www.w3.org/2000/svg">
<path d="M117.36 25.912C117.765 25.816 118.203 25.752 118.672 25.72C119.141 25.688 119.605 25.672 120.064 25.672C120.555 25.672 121.051 25.72 121.552 25.816C122.064 25.912 122.528 26.088 122.944 26.344C123.36 26.6 123.696 26.952 123.952 27.4C124.219 27.848 124.352 28.4187 124.352 29.112C124.352 29.7947 124.229 30.3707 123.984 30.84C123.739 31.3093 123.413 31.6933 123.008 31.992C122.603 32.28 122.139 32.488 121.616 32.616C121.093 32.744 120.555 32.808 120 32.808C119.947 32.808 119.856 32.808 119.728 32.808C119.611 32.808 119.483 32.808 119.344 32.808C119.216 32.7973 119.088 32.7867 118.96 32.776C118.832 32.7653 118.741 32.7547 118.688 32.744V37H117.36V25.912ZM120.096 26.824C119.819 26.824 119.552 26.8293 119.296 26.84C119.04 26.8507 118.837 26.8773 118.688 26.92V31.56C118.741 31.5813 118.827 31.5973 118.944 31.608C119.061 31.608 119.184 31.6133 119.312 31.624C119.44 31.624 119.563 31.624 119.68 31.624C119.797 31.624 119.883 31.624 119.936 31.624C120.299 31.624 120.656 31.592 121.008 31.528C121.371 31.4533 121.696 31.3253 121.984 31.144C122.272 30.9627 122.501 30.7067 122.672 30.376C122.853 30.0453 122.944 29.624 122.944 29.112C122.944 28.6747 122.859 28.312 122.688 28.024C122.528 27.7253 122.309 27.4907 122.032 27.32C121.765 27.1387 121.461 27.0107 121.12 26.936C120.779 26.8613 120.437 26.824 120.096 26.824ZM125.568 31.4C125.568 29.5333 125.963 28.104 126.752 27.112C127.541 26.1093 128.667 25.608 130.128 25.608C130.917 25.608 131.6 25.7467 132.176 26.024C132.752 26.3013 133.227 26.696 133.6 27.208C133.984 27.7093 134.267 28.3173 134.448 29.032C134.629 29.736 134.72 30.5253 134.72 31.4C134.72 33.2667 134.32 34.7013 133.52 35.704C132.731 36.696 131.6 37.192 130.128 37.192C129.349 37.192 128.672 37.0533 128.096 36.776C127.531 36.4987 127.056 36.1093 126.672 35.608C126.299 35.096 126.021 34.488 125.84 33.784C125.659 33.0693 125.568 32.2747 125.568 31.4ZM126.976 31.4C126.976 32.0187 127.035 32.6053 127.152 33.16C127.28 33.7147 127.472 34.2053 127.728 34.632C127.984 35.048 128.309 35.384 128.704 35.64C129.109 35.8853 129.584 36.008 130.128 36.008C131.12 36.008 131.899 35.6347 132.464 34.888C133.029 34.1307 133.312 32.968 133.312 31.4C133.312 30.792 133.248 30.2107 133.12 29.656C133.003 29.0907 132.811 28.6 132.544 28.184C132.288 27.7573 131.957 27.4213 131.552 27.176C131.157 26.92 130.683 26.792 130.128 26.792C129.147 26.792 128.373 27.1707 127.808 27.928C127.253 28.6747 126.976 29.832 126.976 31.4ZM143.673 31.864H138.297V37H136.969V25.8H138.297V30.68H143.673V25.8H145.001V37H143.673V31.864ZM154.567 29.416L154.663 28.136H154.599L153.911 29.448L148.503 37H147.719V25.8H149.047V33.48L148.935 34.744H148.999L149.703 33.432L155.111 25.8H155.895V37H154.567V29.416ZM160.69 31.816H159.938V37H158.61V25.8H159.938V31.016L160.658 30.792L164.418 25.8H165.954L162.21 30.616L161.538 31.144L162.354 31.784L166.45 37H164.77L160.69 31.816Z" fill="#4A4C4A"/>
<g filter="url(#filter0_d_252_11)">
<path d="M47 31.1971C47 19.708 56.3138 10.3943 67.8029 10.3943H95.3046C106.794 10.3943 116.107 19.708 116.107 31.1971V31.1971C116.107 42.6862 106.794 52 95.3046 52H67.8029C56.3138 52 47 42.6862 47 31.1971V31.1971Z" fill="#4A4C4A"/>
<path d="M97.9668 12.2974L105.063 2.00006" stroke="#4A4C4A" stroke-width="5"/>
<path d="M62.981 12.584L56.5021 2.00007" stroke="#4A4C4A" stroke-width="5"/>
<ellipse cx="81.5537" cy="31.1969" rx="23.3238" ry="10.9489" fill="#F0F0FF"/>
<ellipse cx="72.6991" cy="31.3796" rx="2.80749" ry="2.37226" fill="#4A4C4A"/>
<ellipse cx="91.2718" cy="31.3796" rx="2.80749" ry="2.37226" fill="#4A4C4A"/>
</g>
<path d="M2.4 30.68H7.008C6.95467 30.0293 6.82667 29.4587 6.624 28.968C6.42133 28.4667 6.16 28.056 5.84 27.736C5.52 27.4053 5.14667 27.1653 4.72 27.016C4.304 26.8667 3.85067 26.792 3.36 26.792C2.85867 26.792 2.41067 26.8347 2.016 26.92C1.632 27.0053 1.31733 27.1227 1.072 27.272L0.72 26.232C1.05067 26.04 1.46133 25.8907 1.952 25.784C2.44267 25.6667 2.96533 25.608 3.52 25.608C4.20267 25.608 4.83733 25.7147 5.424 25.928C6.01067 26.1413 6.51733 26.4827 6.944 26.952C7.38133 27.4107 7.72267 28.008 7.968 28.744C8.21333 29.48 8.336 30.3653 8.336 31.4C8.336 32.4453 8.19733 33.336 7.92 34.072C7.64267 34.808 7.264 35.4107 6.784 35.88C6.31467 36.3387 5.76533 36.6747 5.136 36.888C4.51733 37.0907 3.86667 37.192 3.184 37.192C2.65067 37.192 2.176 37.1547 1.76 37.08C1.35467 37.0053 1.008 36.9093 0.72 36.792L1.072 35.624C1.31733 35.7413 1.63733 35.8373 2.032 35.912C2.42667 35.976 2.83733 36.008 3.264 36.008C3.69067 36.008 4.11733 35.944 4.544 35.816C4.98133 35.6773 5.376 35.4427 5.728 35.112C6.08 34.7813 6.37333 34.3493 6.608 33.816C6.84267 33.2827 6.98133 32.632 7.024 31.864H2.4V30.68ZM16.4054 26.984H13.0614C12.9547 29.1173 12.8107 30.8933 12.6294 32.312C12.4587 33.72 12.1974 34.8187 11.8454 35.608C11.6107 36.12 11.3334 36.4933 11.0134 36.728C10.6934 36.9627 10.3467 37.08 9.97338 37.08C9.78138 37.08 9.61604 37.064 9.47738 37.032C9.33871 37.0107 9.20538 36.9733 9.07737 36.92L9.25338 35.768C9.36004 35.8 9.47204 35.816 9.58938 35.816C9.77071 35.816 9.94671 35.7573 10.1174 35.64C10.2987 35.5227 10.4747 35.304 10.6454 34.984C10.7947 34.696 10.9334 34.312 11.0614 33.832C11.2 33.352 11.3174 32.744 11.4134 32.008C11.52 31.272 11.6054 30.3973 11.6694 29.384C11.7334 28.36 11.7814 27.1653 11.8134 25.8H17.7334V37H16.4054V26.984ZM20.4538 25.8H26.5498V26.984H21.7818V30.648H26.1498V31.832H21.7818V35.816H26.6298V37H20.4538V25.8ZM31.1119 31.816H30.3599V37H29.0319V25.8H30.3599V31.016L31.0799 30.792L34.8399 25.8H36.3759L32.6319 30.616L31.9599 31.144L32.7759 31.784L36.8719 37H35.1919L31.1119 31.816ZM45.8733 26.984H42.3853V37H41.0573V26.984H37.5693V25.8H45.8733V26.984Z" fill="#4A4C4A"/>
<defs>
<filter id="filter0_d_252_11" x="47" y="0.89624" width="79.1074" height="61.1038" filterUnits="userSpaceOnUse" color-interpolation-filters="sRGB">
<feFlood flood-opacity="0" result="BackgroundImageFix"/>
<feColorMatrix in="SourceAlpha" type="matrix" values="0 0 0 0 0 0 0 0 0 0 0 0 0 0 0 0 0 0 127 0" result="hardAlpha"/>
<feOffset dx="5" dy="5"/>
<feGaussianBlur stdDeviation="2.5"/>
<feComposite in2="hardAlpha" operator="out"/>
<feColorMatrix type="matrix" values="0 0 0 0 0 0 0 0 0 0 0 0 0 0 0 0 0 0 0.25 0"/>
<feBlend mode="normal" in2="BackgroundImageFix" result="effect1_dropShadow_252_11"/>
<feBlend mode="normal" in="SourceGraphic" in2="effect1_dropShadow_252_11" result="shape"/>
</filter>
</defs>
</svg>
